<svg width="26" height="26" viewBox="0 0 26 26" fill="none" xmlns="http://www.w3.org/2000/svg">
<path d="M24.5503 1.46767C23.8353 0.75267 22.6803 0.75267 21.9653 1.46767L13.0003 10.4143L4.03531 1.44934C3.32031 0.734336 2.16531 0.734336 1.45031 1.44934C0.735312 2.16434 0.735312 3.31934 1.45031 4.03434L10.4153 12.9993L1.45031 21.9643C0.735312 22.6793 0.735312 23.8343 1.45031 24.5493C2.16531 25.2643 3.32031 25.2643 4.03531 24.5493L13.0003 15.5843L21.9653 24.5493C22.6803 25.2643 23.8353 25.2643 24.5503 24.5493C25.2653 23.8343 25.2653 22.6793 24.5503 21.9643L15.5853 12.9993L24.5503 4.03434C25.247 3.33767 25.247 2.16434 24.5503 1.46767Z" fill="url(#paint0_linear_2205_865)"/>
<defs>
<linearGradient id="paint0_linear_2205_865" x1="0.914063" y1="13.0717" x2="25.0866" y2="13.0717" gradientUnits="userSpaceOnUse">
<stop stop-color="#EFBDCF"/>
<stop offset="1" stop-color="#9E81EF"/>
</linearGradient>
</defs>
</svg>
